<svg xmlns="http://www.w3.org/2000/svg" width="576" height="448" viewBox="0 0 576 448">
  <path id="address-card-solid" d="M512,32H64A64,64,0,0,0,0,96V416a64,64,0,0,0,64,64H512a64,64,0,0,0,64-64V96A64.027,64.027,0,0,0,512,32ZM176,128a64,64,0,1,1-64,64A64,64,0,0,1,176,128Zm96,256H80a16.021,16.021,0,0,1-16-16,79.991,79.991,0,0,1,80-80h64a80,80,0,0,1,80,80A16.047,16.047,0,0,1,272,384Zm224-64H368a16,16,0,0,1,0-32H496a16,16,0,0,1,0,32Zm0-64H368a16,16,0,0,1,0-32H496a16,16,0,0,1,0,32Zm0-64H368a16,16,0,0,1,0-32H496a16,16,0,0,1,0,32Z" transform="translate(0 -32)" fill="#4898c7"/>
</svg>
