<svg xmlns="http://www.w3.org/2000/svg" width="231.194" height="80.678" viewBox="0 0 231.194 80.678">
  <g id="amlogo" transform="translate(0.028 0.005)">
    <path id="Tracé_55" data-name="Tracé 55" d="M301.822,88.91A27.984,27.984,0,0,0,283.1,96.052a28.107,28.107,0,0,0-36.253-1,28.149,28.149,0,0,0-26.923-4.53,42.853,42.853,0,0,1,16.34,33.7v43.9h21.167V123.39a7.383,7.383,0,1,1,14.765,0v44.729H293.36V123.2a7.382,7.382,0,1,1,14.762.189l0,22.78a21.954,21.954,0,0,0,21.823,21.95l0-51.094h0A28.116,28.116,0,0,0,301.822,88.91Z" transform="translate(-142.2 -87.446)" fill="#ceecf4"/>
    <path id="Tracé_56" data-name="Tracé 56" d="M126.484,104.089a39.751,39.751,0,1,0-31.718,63.7V135.538a7.354,7.354,0,1,1,7.354-7.354v7.255a32.346,32.346,0,0,0,32.35,32.35h.042V128.038a39.6,39.6,0,0,0-8.014-23.949Z" transform="translate(-55.03 -87.115)" fill="#ceecf4"/>
    <path id="Tracé_57" data-name="Tracé 57" d="M512.206,98.229a10.417,10.417,0,1,1-.01,0Zm-6.534,9.655a10.248,10.248,0,0,1-2.324,2,10.546,10.546,0,0,1-5.695,1.659,10.371,10.371,0,0,1-2.88-.4,10.626,10.626,0,1,1,9.513-18.532h0a10.621,10.621,0,0,1,1.381,15.274Z" transform="translate(-281.21 -85.8)" fill="#ceecf4"/>
    <path id="Tracé_58" data-name="Tracé 58" d="M449.93,22.746h3.154v8.67h2.5v-8.67h3.041V20.78H449.93Z" transform="translate(-237.834 -10.986)" fill="#ceecf4"/>
  </g>
</svg>
