<svg xmlns="http://www.w3.org/2000/svg" width="639.975" height="512.026" viewBox="0 0 639.975 512.026">
  <path id="code-solid" d="M414.8,40.79,286.8,488.8a32.032,32.032,0,0,1-61.6-17.6l128-447.99a32.03,32.03,0,0,1,61.6,17.58ZM518.6,121.4l112,112a31.928,31.928,0,0,1,0,45.2l-112,112a31.961,31.961,0,1,1-45.2-45.2L562.7,256l-89.3-89.4a31.961,31.961,0,0,1,45.2-45.2Zm-352,45.2L77.25,256l89.35,89.4a31.961,31.961,0,1,1-45.2,45.2L9.372,278.6a31.935,31.935,0,0,1,0-45.2L121.4,121.4a31.961,31.961,0,0,1,45.2,45.2Z" transform="translate(0 0.008)" fill="#4898c7"/>
</svg>
