<svg id="Calque_2" data-name="Calque 2" xmlns="http://www.w3.org/2000/svg" width="401.82" height="390.85" viewBox="0 0 401.82 390.85">
  <g id="Calque_1" data-name="Calque 1">
    <path id="Tracé_25" data-name="Tracé 25" d="M397.53,0H0V384.46l32.83-31.75V28.65H367.91Z" fill="#4898c7"/>
    <path id="Tracé_26" data-name="Tracé 26" d="M367.45,208.55V360.62H210.2l-31.25,30.23H401.82V175.31Z" fill="#4898c7"/>
    <path id="Tracé_27" data-name="Tracé 27" d="M208.5,279a83.87,83.87,0,0,0,0-167.06c-2.5-.23-5-.34-7.58-.34H117V279.29h83.88C203.48,279.29,206,279.18,208.5,279Zm-60.13-83.53a52.291,52.291,0,0,1,.5-7.24V142.87h52a52.55,52.55,0,1,1,0,105.1h-52V202.66a52.291,52.291,0,0,1-.5-7.24Z" fill="#4898c7"/>
  </g>
</svg>
