<svg xmlns="http://www.w3.org/2000/svg" width="159" height="111.295" viewBox="0 0 159 111.295">
  <path id="graduation-cap-solid" d="M154.8,58.074,84.568,32.932a15.639,15.639,0,0,0-10.541,0L3.987,58.074a6.122,6.122,0,0,0,0,11.475L18.9,74.893a34.347,34.347,0,0,0-6.1,13.4A7.953,7.953,0,0,0,7.95,95.613a7.817,7.817,0,0,0,2.966,6.052L4.748,138.682a3.977,3.977,0,0,0,3.92,4.631H23.132a3.974,3.974,0,0,0,3.92-4.628l-6.169-37.017a8.159,8.159,0,0,0,2.966-6.054,7.813,7.813,0,0,0-3.16-6.184,26.409,26.409,0,0,1,6.2-11.684L74.238,94.7a15.639,15.639,0,0,0,10.541,0l70.233-25.142A6.082,6.082,0,0,0,159,63.813,5.99,5.99,0,0,0,154.8,58.074Zm-67.575,44.1a21.338,21.338,0,0,1-7.726,1.391,23.544,23.544,0,0,1-7.95-1.38L35.477,89.278,31.8,124.755c0,10.26,21.142,18.558,47.7,18.558,26.111,0,47.7-8.3,47.7-18.551l-3.672-35.5Z" transform="translate(0 -32.018)" fill="#ceecf4"/>
</svg>
