<svg xmlns="http://www.w3.org/2000/svg" width="640" height="447.982" viewBox="0 0 640 447.982">
  <path id="graduation-cap-solid" d="M623.1,136.9,340.4,35.7a62.951,62.951,0,0,0-42.43,0L16.05,136.9a24.641,24.641,0,0,0,0,46.19L76.07,204.6a138.252,138.252,0,0,0-24.55,53.95A32.011,32.011,0,0,0,32,288c0,9.953,4.814,18.49,11.94,24.36l-24.83,149A16.008,16.008,0,0,0,34.89,480H93.11a16,16,0,0,0,15.78-18.63l-24.83-149C91.19,306.5,96,297.1,96,288c0-10.29-5.174-19.03-12.72-24.89a106.3,106.3,0,0,1,24.94-47.03l190.6,68.23a62.951,62.951,0,0,0,42.43,0l282.7-101.2A24.48,24.48,0,0,0,640,160,24.11,24.11,0,0,0,623.1,136.9Zm-272,177.5A85.89,85.89,0,0,1,320,320a94.768,94.768,0,0,1-32-5.555L142.8,262.5,128,405.3c0,41.3,85.1,74.7,192,74.7,105.1,0,192-33.4,192-74.67l-14.78-142.9Z" transform="translate(0 -32.018)" fill="#4898c7"/>
</svg>
