<svg xmlns="http://www.w3.org/2000/svg" width="120" height="120" viewBox="0 0 120 120">
  <g id="jobexp" transform="translate(-10 -10)">
    <path id="Tracé_51" data-name="Tracé 51" d="M70,10a60,60,0,1,0,60,60A60.05,60.05,0,0,0,70,10ZM85.282,96.143a41.553,41.553,0,0,1-6.943,6.318c-2.02,1.384-4.163,2.78-6.318,4.041a4.033,4.033,0,0,1-4.42-.122,74.149,74.149,0,0,1-10.1-7.7l-2.522-2.522a6.279,6.279,0,0,1-1.763-5.682,337.248,337.248,0,0,1,7.7-35.241,18.111,18.111,0,0,1,.759-2.4,1.536,1.536,0,0,0-.257-1.641,42.4,42.4,0,0,1-4.922-9.857,5.32,5.32,0,0,1,4.3-7.322c2.9-.257,5.816-.637,8.718-1.016h.5a59.321,59.321,0,0,1,9.478,1.016,5.285,5.285,0,0,1,4.163,6.7,34.748,34.748,0,0,1-5.18,10.616,1.646,1.646,0,0,0-.257,1.384c2.02,7.837,4.041,15.784,5.816,23.743,1.139,4.8,1.9,9.722,2.657,14.657A5.433,5.433,0,0,1,85.282,96.143Z" transform="translate(0 0)" fill="#ceecf4"/>
    <path id="Tracé_52" data-name="Tracé 52" d="M410.808,391.6c-1.9-9.722-4.42-19.2-7.078-28.8h-10.1c-.5,0-.759.122-.882.637a293.1,293.1,0,0,0-8.461,37.518,3.145,3.145,0,0,0,.882,2.78,53.622,53.622,0,0,0,11.743,9.478,2.271,2.271,0,0,0,2.657,0c1.763-1.139,3.539-2.4,5.3-3.661a46.044,46.044,0,0,0,6.943-6.184,2.589,2.589,0,0,0,.759-2.02C411.946,398.041,411.444,394.759,410.808,391.6Z" transform="translate(-328.428 -309.6)" fill="#ceecf4"/>
    <path id="Tracé_53" data-name="Tracé 53" d="M414.378,236.014h10.873a1.313,1.313,0,0,0,.882-.38,34.251,34.251,0,0,0,4.8-9.6A2.217,2.217,0,0,0,429.17,223a58.961,58.961,0,0,0-7.959-1.016,37.318,37.318,0,0,0-9.98,1.016,2.4,2.4,0,0,0-2.02,3.282,33.48,33.48,0,0,0,4.42,9.343A1.377,1.377,0,0,0,414.378,236.014Z" transform="translate(-350.195 -185.973)" fill="#ceecf4"/>
  </g>
</svg>
