<svg xmlns="http://www.w3.org/2000/svg" width="640" height="448" viewBox="0 0 640 448">
  <path id="laptop-code-solid" d="M128,96H512V352h64V80a48.161,48.161,0,0,0-48-48H112A48.18,48.18,0,0,0,64,80V352h64ZM624,384H16A16.145,16.145,0,0,0,0,400v16a64.124,64.124,0,0,0,64,64H576a64.124,64.124,0,0,0,64-64V400A16.112,16.112,0,0,0,624,384ZM365.9,286.2a20.034,20.034,0,0,0,28.24-.044l48-48a20.028,20.028,0,0,0,0-28.31l-48-48a20.008,20.008,0,0,0-28.28,28.31L399.72,224l-33.86,33.84A19.971,19.971,0,0,0,365.9,286.2ZM274.1,161.9a19.99,19.99,0,0,0-28.28,0l-48,48a20.028,20.028,0,0,0,0,28.31l48,48A20.176,20.176,0,0,0,260,292a20,20,0,0,0,14.14-34.154L240.3,224l33.86-33.84A21.711,21.711,0,0,0,274.1,161.9Z" transform="translate(0 -32)" fill="#4898c7"/>
</svg>
