<svg xmlns="http://www.w3.org/2000/svg" width="640" height="512" viewBox="0 0 640 512">
  <path id="network-wired-solid" d="M400,0a48.006,48.006,0,0,1,48,48v96a48.012,48.012,0,0,1-48,48H352v32H608a32,32,0,0,1,0,64H512v32h48a48.012,48.012,0,0,1,48,48v96a48.012,48.012,0,0,1-48,48H400a48.012,48.012,0,0,1-48-48V368a48.012,48.012,0,0,1,48-48h48V288H192v32h48a48.012,48.012,0,0,1,48,48v96a48.012,48.012,0,0,1-48,48H80a48.006,48.006,0,0,1-48-48V368a48.006,48.006,0,0,1,48-48h48V288H32a32,32,0,0,1,0-64H288V192H240a48.012,48.012,0,0,1-48-48V48A48.006,48.006,0,0,1,240,0ZM256,64v64H384V64ZM224,448V384H96v64Zm192-64v64H544V384Z" fill="#4898c7"/>
</svg>
