<svg xmlns="http://www.w3.org/2000/svg" width="446.8" height="503.95" viewBox="0 0 446.8 503.95">
  <path id="node-js-brands" d="M224,508a39.17,39.17,0,0,1-19.4-5.2l-61.7-36.5c-9.2-5.2-4.7-7-1.7-8,12.3-4.3,14.8-5.2,27.9-12.7a4.512,4.512,0,0,1,4.6.4l47.4,28.1a5.789,5.789,0,0,0,5.7,0L411.5,367.5a5.921,5.921,0,0,0,2.8-5V149.3a5.958,5.958,0,0,0-2.9-5.1L226.8,37.7a5.79,5.79,0,0,0-5.7,0L36.6,144.3a5.837,5.837,0,0,0-2.9,5.1V362.5a5.519,5.519,0,0,0,2.9,4.9l50.6,29.2c27.5,13.7,44.3-2.4,44.3-18.7V167.5a5.294,5.294,0,0,1,5.4-5.3h23.4a5.356,5.356,0,0,1,5.4,5.3V378c0,36.6-20,57.6-54.7,57.6-10.7,0-19.1,0-42.5-11.6L20.1,396.1A38.885,38.885,0,0,1,.7,362.4V149.3a39.007,39.007,0,0,1,19.4-33.7L204.6,9a40.491,40.491,0,0,1,38.8,0L428.1,115.7a38.885,38.885,0,0,1,19.4,33.7V362.5a39.129,39.129,0,0,1-19.4,33.7L243.4,502.8A38.892,38.892,0,0,1,224,508ZM373.1,297.9c0-39.9-27-50.5-83.7-58-57.4-7.6-63.2-11.5-63.2-24.9,0-11.1,4.9-25.9,47.4-25.9,37.9,0,51.9,8.2,57.7,33.8a5.353,5.353,0,0,0,5.2,4.2h24a5.22,5.22,0,0,0,3.9-1.7,5.566,5.566,0,0,0,1.4-4.1c-3.7-44.1-33-64.6-92.2-64.6-52.7,0-84.1,22.2-84.1,59.5,0,40.4,31.3,51.6,81.8,56.6,60.5,5.9,65.2,14.8,65.2,26.7,0,20.6-16.6,29.4-55.5,29.4-48.9,0-59.6-12.3-63.2-36.6a5.293,5.293,0,0,0-5.3-4.5H188.6a5.271,5.271,0,0,0-5.3,5.3c0,31.1,16.9,68.2,97.8,68.2,58.4-.1,92-23.2,92-63.4Z" transform="translate(-0.7 -4.05)" fill="#4898c7"/>
</svg>
