<svg xmlns="http://www.w3.org/2000/svg" width="512" height="448" viewBox="0 0 512 448">
  <path id="server-solid" d="M480,288H32A32.068,32.068,0,0,0,0,320V448a32.068,32.068,0,0,0,32,32H480a32.068,32.068,0,0,0,32-32V320A32.094,32.094,0,0,0,480,288ZM352,408a24,24,0,1,1,24-24A24.006,24.006,0,0,1,352,408Zm64,0a24,24,0,1,1,24-24A24.006,24.006,0,0,1,416,408ZM480,32H32A32.068,32.068,0,0,0,0,64V192a32.068,32.068,0,0,0,32,32H480a32.068,32.068,0,0,0,32-32V64A32.081,32.081,0,0,0,480,32ZM352,152a24,24,0,1,1,24-24A24.006,24.006,0,0,1,352,152Zm64,0a24,24,0,1,1,24-24A24.006,24.006,0,0,1,416,152Z" transform="translate(0 -32)" fill="#4898c7"/>
</svg>
