<svg id="Calque_2" data-name="Calque 2" xmlns="http://www.w3.org/2000/svg" width="560.5" height="392.73" viewBox="0 0 560.5 392.73">
  <g id="Calque_1" data-name="Calque 1">
    <path id="Tracé_28" data-name="Tracé 28" d="M196.37,392.73V340.19L52.54,196.37,196.37,52.54V0L0,196.37Z" fill="#4898c7"/>
    <path id="Tracé_29" data-name="Tracé 29" d="M432.88,76.5v49.46l78.16,78.16-78.16,78.16v49.46L560.5,204.12Z" fill="#4898c7"/>
    <path id="Tracé_30" data-name="Tracé 30" d="M287.83,116.72c-2.5-.23-5-.34-7.58-.34H196.37V284.12h83.88c2.56,0,5.08-.11,7.58-.34a83.87,83.87,0,0,0,0-167.06ZM280.25,252.8H228.2V207.49a52.671,52.671,0,0,1,0-14.48V147.7h52.05a52.55,52.55,0,0,1,0,105.1Z" fill="#4898c7"/>
  </g>
</svg>
