<svg id="Composant_21_1" data-name="Composant 21 – 1" xmlns="http://www.w3.org/2000/svg" width="822.097" height="599.679" viewBox="0 0 822.097 599.679">
  <path id="Tracé_38" data-name="Tracé 38" d="M2089.1,5101H1783.982s-112.569,8.107-116.738-269.8-120.907-329.854-120.907-329.854H1267V5101Z" transform="translate(-1267 -4501.346)" fill="#92a8b4"/>
  <path id="Tracé_39" data-name="Tracé 39" d="M1667.462,5099.025s90.16-33.755,119.7-175.133c10.882-83.633-31.782-86.221-34.642-173.385-.757-52.6.328-72.275,11.765-108.976,47.175-119.276,118.651-141.775,118.651-141.775h269.53v599.269Z" transform="translate(-1638.462 -4499.346)" fill="#fff"/>
  <path id="Tracé_45" data-name="Tracé 45" d="M2229.436,5226.6s191.94-39.958,191.94-218.909c.73-.545.143,7.054,0,20.564-.114,10.761.3,25.755,0,42.288-.109,64.325,0,155.536,0,155.536Z" transform="translate(-1907.436 -4627.008)" fill="#5b6585"/>
</svg>
