<svg id="Composant_25_1" data-name="Composant 25 – 1" xmlns="http://www.w3.org/2000/svg" width="1022.567" height="599.024" viewBox="0 0 1022.567 599.024">
  <path id="Tracé_35" data-name="Tracé 35" d="M1267,5100.346h379.518s140.019,8.1,145.2-269.506,150.391-329.494,150.391-329.494h347.454v599Z" transform="translate(-1267 -4501.346)" fill="#92a8b4"/>
  <path id="Tracé_36" data-name="Tracé 36" d="M1667.462,5098.78s115.685-33.741,153.582-175.062c13.962-83.6-43.633-87.875-44.813-152.652,11.8-75.377,55.345-59.182,78.721-128,39.892-117.436,97.734-143.312,97.734-143.312h337.083V5098.78Z" transform="translate(-1267.664 -4499.755)" fill="#fff"/>
  <path id="Tracé_46" data-name="Tracé 46" d="M2229.436,5076.069s87.841-12.485,87.841-68.4c.334-.171.065,2.2,0,6.425-.052,3.362.138,8.047,0,13.212-.05,20.1,0,48.6,0,48.6Z" transform="translate(-1296.142 -4477.134)" fill="#5b6585"/>
</svg>
