<svg id="Composant_24_1" data-name="Composant 24 – 1" xmlns="http://www.w3.org/2000/svg" width="1022.567" height="599.024" viewBox="0 0 1022.567 599.024">
  <path id="Tracé_48" data-name="Tracé 48" d="M2289.567,4501.37H1910.05s-140.019-8.1-145.2,269.506-150.391,329.494-150.391,329.494H1267v-599Z" transform="translate(-1267 -4501.346)" fill="#92a8b4"/>
  <path id="Tracé_49" data-name="Tracé 49" d="M2289.769,4499.755s-115.685,33.741-153.582,175.062c-13.962,83.6,43.633,87.875,44.813,152.652-11.8,75.377-55.345,59.182-78.721,128-39.892,117.436-97.734,143.312-97.734,143.312H1667.462V4499.755Z" transform="translate(-1667 -4499.755)" fill="#fff"/>
  <path id="Tracé_47" data-name="Tracé 47" d="M2317.44,5007.662s-87.841,12.485-87.841,68.4c-.334.171-.065-2.2,0-6.425.052-3.362-.138-8.047,0-13.212.05-20.1,0-48.6,0-48.6Z" transform="translate(-2229.142 -5007.134)" fill="#5b6585"/>
</svg>
