<svg id="Composant_26_1" data-name="Composant 26 – 1" xmlns="http://www.w3.org/2000/svg" width="510.678" height="600.337" viewBox="0 0 510.678 600.337">
  <rect id="Rectangle_118" data-name="Rectangle 118" width="510" height="600" transform="translate(0.38 0.337)" fill="#fff"/>
  <path id="Tracé_42" data-name="Tracé 42" d="M2229.436,5007.663s182.7,43.852,182.7,240.243c.694.6.136-7.741,0-22.568-.108-11.81.288-28.265,0-46.409-.1-70.595,0-170.694,0-170.694Z" transform="translate(-1901.799 -5007.663)" fill="#5b6585"/>
  <path id="Tracé_43" data-name="Tracé 43" d="M2397.353,5007.664s-164.521,39.122-168,202.347c-1.524,1.2-.23-42.588,0-90.083.111-22.859.1-46.233,0-66.116-.139-26.481-.413-46.147-.413-46.147Z" transform="translate(-2228.62 -5007.663)" fill="#92a8b4"/>
  <path id="Tracé_44" data-name="Tracé 44" d="M2229.436,5359.709s286.526-64.252,286.526-352c1.089-.877.213,11.343,0,33.067-.169,17.3.452,41.414,0,68-.163,103.435,0,250.1,0,250.1Z" transform="translate(-2005.818 -4759.436)" fill="#5b6585"/>
</svg>
